<?xml version="1.0" encoding="UTF-8" standalone="no"?>
<!DOCTYPE svg PUBLIC "-//W3C//DTD SVG 1.1//EN"
 "http://www.w3.org/Graphics/SVG/1.1/DTD/svg11.dtd">
<!-- Generated by graphviz version 2.26.3 (20100126.1600)
 -->
<!-- Title: g Pages: 1 -->
<svg width="358pt" height="130pt"
 viewBox="0.00 0.00 358.00 130.00" xmlns="http://www.w3.org/2000/svg" xmlns:xlink="http://www.w3.org/1999/xlink">
<g id="graph1" class="graph" transform="scale(1 1) rotate(0) translate(4 126)">
<title>g</title>
<polygon fill="white" stroke="white" points="-4,5 -4,-126 355,-126 355,5 -4,5"/>
<!-- N99 -->
<g id="node1" class="node"><title>N99</title>
<polygon fill="#ffffff" stroke="#ffffff" stroke-width="1.5" points="12,-1 102,-1 114,-13 114,-25 102,-37 12,-37 0,-25 0,-13 12,-1"/>
<path fill="#ffffff" stroke="#ffffff" stroke-width="1.5" d="M102,-1C108,-1 114,-7 114,-13"/>
<path fill="#ffffff" stroke="#ffffff" stroke-width="1.5" d="M114,-25C114,-31 108,-37 102,-37"/>
<path fill="#ffffff" stroke="#ffffff" stroke-width="1.5" d="M12,-37C6,-37 0,-31 0,-25"/>
<path fill="#ffffff" stroke="#ffffff" stroke-width="1.5" d="M0,-13C0,-7 6,-1 12,-1"/>
<polyline fill="none" stroke="#2e3436" stroke-width="1.5" points="12,-1 102,-1 "/>
<path fill="none" stroke="#2e3436" stroke-width="1.5" d="M102,-1C108,-1 114,-7 114,-13"/>
<polyline fill="none" stroke="#2e3436" stroke-width="1.5" points="114,-13 114,-25 "/>
<path fill="none" stroke="#2e3436" stroke-width="1.5" d="M114,-25C114,-31 108,-37 102,-37"/>
<polyline fill="none" stroke="#2e3436" stroke-width="1.5" points="102,-37 12,-37 "/>
<path fill="none" stroke="#2e3436" stroke-width="1.5" d="M12,-37C6,-37 0,-31 0,-25"/>
<polyline fill="none" stroke="#2e3436" stroke-width="1.5" points="0,-25 0,-13 "/>
<path fill="none" stroke="#2e3436" stroke-width="1.5" d="M0,-13C0,-7 6,-1 12,-1"/>
<text text-anchor="start" x="8" y="-16.8" font-family="FreeSans" font-size="8.00" fill="#1c2021">Node[99]name = &#39;John&#39;</text>
</g>
<!-- N100 -->
<g id="node2" class="node"><title>N100</title>
<polygon fill="#ffffff" stroke="#ffffff" stroke-width="1.5" points="22,-85 92,-85 104,-97 104,-109 92,-121 22,-121 10,-109 10,-97 22,-85"/>
<path fill="#ffffff" stroke="#ffffff" stroke-width="1.5" d="M92,-85C98,-85 104,-91 104,-97"/>
<path fill="#ffffff" stroke="#ffffff" stroke-width="1.5" d="M104,-109C104,-115 98,-121 92,-121"/>
<path fill="#ffffff" stroke="#ffffff" stroke-width="1.5" d="M22,-121C16,-121 10,-115 10,-109"/>
<path fill="#ffffff" stroke="#ffffff" stroke-width="1.5" d="M10,-97C10,-91 16,-85 22,-85"/>
<polyline fill="none" stroke="#2e3436" stroke-width="1.5" points="22,-85 92,-85 "/>
<path fill="none" stroke="#2e3436" stroke-width="1.5" d="M92,-85C98,-85 104,-91 104,-97"/>
<polyline fill="none" stroke="#2e3436" stroke-width="1.5" points="104,-97 104,-109 "/>
<path fill="none" stroke="#2e3436" stroke-width="1.5" d="M104,-109C104,-115 98,-121 92,-121"/>
<polyline fill="none" stroke="#2e3436" stroke-width="1.5" points="92,-121 22,-121 "/>
<path fill="none" stroke="#2e3436" stroke-width="1.5" d="M22,-121C16,-121 10,-115 10,-109"/>
<polyline fill="none" stroke="#2e3436" stroke-width="1.5" points="10,-109 10,-97 "/>
<path fill="none" stroke="#2e3436" stroke-width="1.5" d="M10,-97C10,-91 16,-85 22,-85"/>
<text text-anchor="start" x="18" y="-100.8" font-family="FreeSans" font-size="8.00" fill="#1c2021">Node[100]age = 1</text>
</g>
<!-- N100&#45;&gt;N99 -->
<g id="edge2" class="edge"><title>N100&#45;&gt;N99</title>
<path fill="none" stroke="#2e3436" stroke-width="2" d="M57,-84.7733C57,-73.1053 57,-57.7874 57,-44.8699"/>
<polygon fill="#2e3436" stroke="#2e3436" points="57,-37.1912 60.3751,-44.6911 57.5,-40.9412 57.5001,-44.6912 57.0001,-44.6912 56.5001,-44.6912 56.5,-40.9412 53.6251,-44.6912 57,-37.1912 57,-37.1912"/>
<text text-anchor="middle" x="71" y="-58.8" font-family="FreeSans" font-size="8.00" fill="#2e3436">knows</text>
</g>
<!-- N101 -->
<g id="node4" class="node"><title>N101</title>
<polygon fill="#ffffff" stroke="#ffffff" stroke-width="1.5" points="145,-85 215,-85 227,-97 227,-109 215,-121 145,-121 133,-109 133,-97 145,-85"/>
<path fill="#ffffff" stroke="#ffffff" stroke-width="1.5" d="M215,-85C221,-85 227,-91 227,-97"/>
<path fill="#ffffff" stroke="#ffffff" stroke-width="1.5" d="M227,-109C227,-115 221,-121 215,-121"/>
<path fill="#ffffff" stroke="#ffffff" stroke-width="1.5" d="M145,-121C139,-121 133,-115 133,-109"/>
<path fill="#ffffff" stroke="#ffffff" stroke-width="1.5" d="M133,-97C133,-91 139,-85 145,-85"/>
<polyline fill="none" stroke="#2e3436" stroke-width="1.5" points="145,-85 215,-85 "/>
<path fill="none" stroke="#2e3436" stroke-width="1.5" d="M215,-85C221,-85 227,-91 227,-97"/>
<polyline fill="none" stroke="#2e3436" stroke-width="1.5" points="227,-97 227,-109 "/>
<path fill="none" stroke="#2e3436" stroke-width="1.5" d="M227,-109C227,-115 221,-121 215,-121"/>
<polyline fill="none" stroke="#2e3436" stroke-width="1.5" points="215,-121 145,-121 "/>
<path fill="none" stroke="#2e3436" stroke-width="1.5" d="M145,-121C139,-121 133,-115 133,-109"/>
<polyline fill="none" stroke="#2e3436" stroke-width="1.5" points="133,-109 133,-97 "/>
<path fill="none" stroke="#2e3436" stroke-width="1.5" d="M133,-97C133,-91 139,-85 145,-85"/>
<text text-anchor="start" x="141" y="-100.8" font-family="FreeSans" font-size="8.00" fill="#1c2021">Node[101]age = 1</text>
</g>
<!-- N102 -->
<g id="node5" class="node"><title>N102</title>
<polygon fill="#ffffff" stroke="#ffffff" stroke-width="1.5" points="268,-85 338,-85 350,-97 350,-109 338,-121 268,-121 256,-109 256,-97 268,-85"/>
<path fill="#ffffff" stroke="#ffffff" stroke-width="1.5" d="M338,-85C344,-85 350,-91 350,-97"/>
<path fill="#ffffff" stroke="#ffffff" stroke-width="1.5" d="M350,-109C350,-115 344,-121 338,-121"/>
<path fill="#ffffff" stroke="#ffffff" stroke-width="1.5" d="M268,-121C262,-121 256,-115 256,-109"/>
<path fill="#ffffff" stroke="#ffffff" stroke-width="1.5" d="M256,-97C256,-91 262,-85 268,-85"/>
<polyline fill="none" stroke="#2e3436" stroke-width="1.5" points="268,-85 338,-85 "/>
<path fill="none" stroke="#2e3436" stroke-width="1.5" d="M338,-85C344,-85 350,-91 350,-97"/>
<polyline fill="none" stroke="#2e3436" stroke-width="1.5" points="350,-97 350,-109 "/>
<path fill="none" stroke="#2e3436" stroke-width="1.5" d="M350,-109C350,-115 344,-121 338,-121"/>
<polyline fill="none" stroke="#2e3436" stroke-width="1.5" points="338,-121 268,-121 "/>
<path fill="none" stroke="#2e3436" stroke-width="1.5" d="M268,-121C262,-121 256,-115 256,-109"/>
<polyline fill="none" stroke="#2e3436" stroke-width="1.5" points="256,-109 256,-97 "/>
<path fill="none" stroke="#2e3436" stroke-width="1.5" d="M256,-97C256,-91 262,-85 268,-85"/>
<text text-anchor="start" x="264" y="-100.8" font-family="FreeSans" font-size="8.00" fill="#1c2021">Node[102]age = 1</text>
</g>
</g>
</svg>
